<svg width="138" height="48" viewBox="0 0 138 48" fill="none" xmlns="http://www.w3.org/2000/svg">
<g clip-path="url(#clip0_1101_18283)">
<path fill-rule="evenodd" clip-rule="evenodd" d="M24.0782 48C37.3331 48 48.0782 37.2548 48.0782 24C48.0782 10.7452 37.333 -4.99999e-06 24.0782 0C10.8234 5e-06 0.0782726 10.7452 0.0782776 24C0.0782826 37.2548 10.8234 48 24.0782 48ZM11.1183 24C11.1183 16.8424 16.9207 11.04 24.0783 11.04C28.9059 11.04 33.1171 13.6796 35.3471 17.5943C34.9278 17.7955 34.6383 18.224 34.6383 18.7202C34.6383 19.4094 35.197 19.9682 35.8863 19.9682C36.0567 19.9682 36.2191 19.934 36.3671 19.8722C36.8024 21.1687 37.0383 22.5568 37.0383 24C37.0383 27.9166 35.3009 31.4275 32.5547 33.8039C29.4443 36.402 26.3393 36.6457 25.6498 36.6769C24.9602 36.7081 24.7527 36.5996 24.6932 36.3145C24.6142 35.935 25.0948 35.7138 25.8 35.4133C27.859 34.5358 28.4633 34.1728 28.8751 33.8039C29.3459 33.3822 29.3594 33.1639 29.3594 32.8663C29.3594 32.5687 29.2093 32.1753 28.7575 31.9448C28.4126 31.7687 28.0079 31.8679 27.859 31.9448C25.3484 33.1159 20.2063 35.5142 19.7224 35.7381C19.2385 35.962 18.7338 35.8202 18.542 35.7213C18.2989 35.6094 17.7182 35.2114 17.7543 34.3719C17.7832 33.7002 18.2779 33.3116 18.5217 33.2013C19.9041 32.5576 22.7454 31.2346 23.0513 31.0919C23.4336 30.9134 23.5889 30.501 23.612 30.2206C23.6352 29.9402 23.5031 29.486 23.0443 29.245C22.6772 29.0522 22.3056 29.1428 22.1657 29.2122C20.0299 30.2086 15.7038 32.2262 15.4858 32.3257C15.2132 32.45 14.8641 32.5002 14.4576 32.3687C14.1324 32.2635 13.8853 32.0113 13.8023 31.8983C13.6913 31.7562 13.3744 31.2616 13.5777 30.6208C13.7403 30.1082 14.1603 29.8334 14.35 29.76C15.2339 29.348 17.0801 28.4875 17.3938 28.3421C17.786 28.1604 17.9412 27.7794 17.9686 27.4908C17.996 27.2022 17.8609 26.7182 17.4006 26.4826C17.0324 26.2941 16.6537 26.3897 16.5103 26.4611C15.8842 26.7529 14.5155 27.3909 14.0493 27.6085L14.0465 27.6098C13.4642 27.8815 12.7529 28.2135 12.1245 27.8273C11.621 27.5179 11.3529 26.5229 11.2817 26.064C11.1742 25.3919 11.1183 24.7025 11.1183 24ZM27.6303 20.4482C28.3196 20.4482 28.8783 19.8894 28.8783 19.2002C28.8783 18.5109 28.3196 17.9522 27.6303 17.9522C26.941 17.9522 26.3823 18.5109 26.3823 19.2002C26.3823 19.8894 26.941 20.4482 27.6303 20.4482Z" fill="white"/>
</g>
<path d="M65.9435 38.6139C63.9143 38.6139 62.0803 38.1587 60.4413 37.2482C58.8024 36.3116 57.5146 35.0109 56.5781 33.3459C55.6415 31.6549 55.1733 29.7038 55.1733 27.4925C55.1733 25.3073 55.6546 23.3691 56.6171 21.6782C57.5797 19.9872 58.8934 18.6864 60.5584 17.7759C62.2234 16.8654 64.0834 16.4101 66.1386 16.4101C68.1938 16.4101 70.0539 16.8654 71.7188 17.7759C73.3838 18.6864 74.6976 19.9872 75.6601 21.6782C76.6227 23.3691 77.104 25.3073 77.104 27.4925C77.104 29.6778 76.6097 31.6159 75.6211 33.3069C74.6325 34.9979 73.2797 36.3116 71.5627 37.2482C69.8718 38.1587 67.9987 38.6139 65.9435 38.6139ZM65.9435 34.7507C67.0882 34.7507 68.1548 34.4776 69.1434 33.9312C70.1579 33.3849 70.9774 32.5655 71.6018 31.4728C72.2261 30.3802 72.5383 29.0534 72.5383 27.4925C72.5383 25.9316 72.2391 24.6179 71.6408 23.5512C71.0424 22.4586 70.249 21.6391 69.2604 21.0928C68.2718 20.5465 67.2052 20.2734 66.0606 20.2734C64.9159 20.2734 63.8493 20.5465 62.8607 21.0928C61.8982 21.6391 61.1307 22.4586 60.5584 23.5512C59.9861 24.6179 59.6999 25.9316 59.6999 27.4925C59.6999 29.8079 60.2852 31.6029 61.4559 32.8776C62.6526 34.1264 64.1485 34.7507 65.9435 34.7507Z" fill="white"/>
<path d="M89.6183 27.5315L99.53 38.2627H93.5205L85.5599 29.0144V38.2627H81.1114V9.38606H85.5599V26.1658L93.3645 16.7613H99.53L89.6183 27.5315Z" fill="white"/>
<path d="M107.518 20.3904V32.2923C107.518 33.0988 107.7 33.6841 108.065 34.0483C108.455 34.3865 109.105 34.5556 110.016 34.5556H112.747V38.2627H109.235C107.232 38.2627 105.697 37.7945 104.631 36.8579C103.564 35.9214 103.031 34.3995 103.031 32.2923V20.3904H100.494V16.7613H103.031V11.4152H107.518V16.7613H112.747V20.3904H107.518Z" fill="white"/>
<path d="M125.784 38.6139C123.754 38.6139 121.92 38.1587 120.281 37.2482C118.643 36.3116 117.355 35.0109 116.418 33.3459C115.482 31.6549 115.013 29.7038 115.013 27.4925C115.013 25.3073 115.495 23.3691 116.457 21.6782C117.42 19.9872 118.734 18.6864 120.399 17.7759C122.064 16.8654 123.924 16.4101 125.979 16.4101C128.034 16.4101 129.894 16.8654 131.559 17.7759C133.224 18.6864 134.538 19.9872 135.5 21.6782C136.463 23.3691 136.944 25.3073 136.944 27.4925C136.944 29.6778 136.45 31.6159 135.461 33.3069C134.473 34.9979 133.12 36.3116 131.403 37.2482C129.712 38.1587 127.839 38.6139 125.784 38.6139ZM125.784 34.7507C126.928 34.7507 127.995 34.4776 128.984 33.9312C129.998 33.3849 130.818 32.5655 131.442 31.4728C132.066 30.3802 132.378 29.0534 132.378 27.4925C132.378 25.9316 132.079 24.6179 131.481 23.5512C130.883 22.4586 130.089 21.6391 129.101 21.0928C128.112 20.5465 127.045 20.2734 125.901 20.2734C124.756 20.2734 123.689 20.5465 122.701 21.0928C121.738 21.6391 120.971 22.4586 120.399 23.5512C119.826 24.6179 119.54 25.9316 119.54 27.4925C119.54 29.8079 120.125 31.6029 121.296 32.8776C122.493 34.1264 123.989 34.7507 125.784 34.7507Z" fill="white"/>
<defs>
<clipPath id="clip0_1101_18283">
<rect width="48" height="48" fill="white" transform="translate(0.0782776)"/>
</clipPath>
</defs>
</svg>
